<svg xmlns="http://www.w3.org/2000/svg" viewBox="0 0 320 120" role="img" aria-labelledby="lockupTitle lockupDesc">
  <title id="lockupTitle">AquaPump logo</title>
  <desc id="lockupDesc">Logotype combining water droplet icon with AquaPump wordmark</desc>
  <defs>
    <linearGradient id="lockupDrop" x1="0%" y1="0%" x2="100%" y2="100%">
      <stop offset="0%" stop-color="#60de84" />
      <stop offset="100%" stop-color="#22b357" />
    </linearGradient>
  </defs>
  <g transform="translate(0 10)">
    <path fill="url(#lockupDrop)" d="M52 0C26 36 12 64 12 84c0 20 16 32 40 32s40-12 40-32c0-20-14-48-40-84Z" />
    <path fill="#0f3a6d" d="M52 28 c -12 18 -20 34 -20 46 c 0 14 9 26 20 26 s 20 -12 20 -26 c 0 -12 -8 -28 -20 -46 Z m 0 62 c -9 0 -16 -8 -16 -18 c 0 -6 2 -12 16 -32 c 14 20 16 26 16 32 c 0 10 -7 18 -16 18 Z" opacity="0.95" />
    <path fill="#0f3a6d" opacity="0.85" d="M30 74c6 4 13 6 22 6s16-2 22-6c1-1 1-2 0-3-1-1-2-1-3 0-6 3-11 4-19 4s-13-1-19-4c-1-1-2-1-3 0-1 1-1 2 0 3Z" />
  </g>
  <text x="120" y="64" font-family="'Manrope', 'Segoe UI', sans-serif" font-size="44" fill="#0f3a6d" font-weight="700" letter-spacing="0.05em">AQUAPUMP</text>
  <text x="120" y="94" font-family="'Manrope', 'Segoe UI', sans-serif" font-size="16" fill="#1b6fb6" letter-spacing="0.3em">YOUR PUMP · OUR SOLUTION</text>
</svg>
