<svg xmlns="http://www.w3.org/2000/svg" viewBox="0 0 160 160" role="img" aria-labelledby="title desc">
  <title id="title">AquaPump logomark</title>
  <desc id="desc">Green water droplet with cresting waves</desc>
  <defs>
    <linearGradient id="outerGradient" x1="0%" x2="100%" y1="0%" y2="100%">
      <stop offset="0%" stop-color="#6ee084" />
      <stop offset="100%" stop-color="#22b357" />
    </linearGradient>
  </defs>
  <path fill="url(#outerGradient)" d="M80 6c-32 48-52 86-52 110 0 24 20 38 52 38s52-14 52-38c0-24-20-62-52-110Z" />
  <path fill="#0f3a6d" d="M80 32 c -16 26 -26 46 -26 60 c 0 18 11 32 26 32 s 26 -14 26 -32 c 0 -14 -10 -34 -26 -60 Z" opacity="0.94" />
  <path fill="white" d="M80 46 c -10 16 -16 28 -16 38 c 0 12 7 20 16 20 s 16 -8 16 -20 c 0 -10 -6 -22 -16 -38 Z" />
  <path fill="white" opacity="0.82" d="M55 102 c 7 6 15 9 25 9 s 18 -3 25 -9 c 1 -1 1 -3 0 -4 c -1 -1 -3 -1 -4 0 c -6 5 -13 7 -21 7 s -15 -2 -21 -7 c -1 -1 -3 -1 -4 0 c -1 1 -1 3 0 4 Z" />
</svg>
