<svg width="64" height="64" viewBox="0 0 64 64" fill="none" xmlns="http://www.w3.org/2000/svg">
  <defs>
    <linearGradient id="paint0_linear" x1="18" y1="8" x2="48" y2="52" gradientUnits="userSpaceOnUse">
      <stop offset="0" stop-color="#2563EB"/>
      <stop offset="1" stop-color="#22D3EE"/>
    </linearGradient>
    <linearGradient id="paint1_linear" x1="18" y1="34" x2="46" y2="46" gradientUnits="userSpaceOnUse">
      <stop offset="0" stop-color="#F8FBFF" stop-opacity="0.92"/>
      <stop offset="1" stop-color="#BFEBFF" stop-opacity="0.65"/>
    </linearGradient>
  </defs>
  <path d="M32 6C22.5 17.9 15 27.1 15 36.4C15 48.2 22.5 56 32 56C41.5 56 49 48.2 49 36.4C49 27.1 41.5 17.9 32 6Z" fill="url(#paint0_linear)"/>
  <path d="M44.5 36.2C37.6 37.9 33.2 36 28.4 34C23.7 32.2 18.6 30.3 14 35.8C14.4 45.6 21.4 52 32 52C41.6 52 48.3 45.7 48.8 36.7C47.6 36.8 46.1 36.6 44.5 36.2Z" fill="url(#paint1_linear)"/>
  <circle cx="24.5" cy="28.5" r="4.5" fill="#F5FDFF" fill-opacity="0.75"/>
</svg>
